<?xml version="1.0" encoding="utf-8"?>
<!-- Generator: Adobe Illustrator 24.0.1, SVG Export Plug-In . SVG Version: 6.00 Build 0)  -->
<svg version="1.1" id="svg28787" xmlns:svg="http://www.w3.org/2000/svg"
	 xmlns="http://www.w3.org/2000/svg" xmlns:xlink="http://www.w3.org/1999/xlink" x="0px" y="0px" viewBox="0 0 678 511.7"
	 style="enable-background:new 0 0 678 511.7;" xml:space="preserve">
<style type="text/css">
	.st0{fill:#F9E18A;}
	.st1{fill:#D3E38E;}
	.st2{fill:#DDA05F;}
	.st3{fill:#DB7544;}
	.st4{fill:#E1723D;}
	.st5{fill:#379C88;}
	.st6{fill:#46946F;}
</style>
<g id="layer1" transform="translate(241.6878,115.94425)">
	<g id="g30703" transform="matrix(2.2752674,0,0,2.1047672,-757.90872,-966.38758)">
		<path id="path30717" class="st0" d="M366,564.2c-10.2-0.6-22-2.7-31.5-5.6c-3.8-1.2-3.6-0.9-4.5-5.5c-1.5-7.1-2-21.3-1.2-31.7
			c0.4-4.6,1.5-15.3,1.8-16.4c0.2-0.9,3.3-1.6,11.9-3c3.4-0.5,6.6-1.1,7-1.1l0.8-0.1L350,495c-0.1-3.1-0.3-6.2-0.4-6.8l-0.2-1.2
			l3.6,0c2,0,8.1,0.1,13.5,0.3s17.4,0.5,26.7,0.7l16.8,0.4v6.9c0,6.9,0,6.9,0.7,7.1c0.4,0.1,1.9,0.4,3.4,0.6c6.8,1.2,6.7,1.2,7,1.9
			c0.4,1,1.6,11.1,1.9,16.5c0.6,8.8,0.2,19.9-1,27.1c-0.4,2.7-2.1,9.8-2.5,10.5c-0.2,0.3-0.7,0.6-1.2,0.8c-5.7,1.2-8.9,1.8-10.7,2.1
			c-1.2,0.2-3,0.5-4.1,0.7c-3,0.5-10.4,1.2-15.5,1.6C383.8,564.4,370.4,564.4,366,564.2z M418.1,554.4c1.2-0.9-0.4-3.7-2.2-3.7
			c-1.2,0-5.3,1.3-5.3,1.6c0,0.1,0.8,0.7,1.8,1.4c1.5,0.9,2.1,1.1,3.4,1.1C416.8,554.8,417.8,554.6,418.1,554.4z M414.4,549.7
			c0.6,0,0.7-0.1,0.4-0.4c-0.6-0.6-4-0.5-4.8,0.2c-1.3,1.2-0.8,1.4,1.5,0.8C412.7,550,414,549.7,414.4,549.7z M381.4,524.4
			c-0.2-0.1-0.6-0.1-1,0c-0.3,0.1-0.1,0.2,0.4,0.2C381.4,524.5,381.6,524.5,381.4,524.4z M391.1,520.1h6.2v-11.6
			c0-9-0.1-11.7-0.4-11.8c-0.2-0.1-2.4-0.2-4.8-0.3l-4.4-0.2v0.9c0,1.1-1.7,3.6-2.4,3.6c-0.7,0-0.4-1,0.9-2.8
			c0.5-0.8,0.9-1.4,0.8-1.5s-4.4-0.2-9.7-0.3c-5.3-0.1-10.9-0.3-12.5-0.4l-2.9-0.2V508v12.5l11.5-0.2
			C379.8,520.2,387.7,520.1,391.1,520.1z M370.2,519.3c0.1-0.6,2.6-2.6,3.3-2.6c0.9,0,0.3,1.1-1.1,2.1
			C370.9,519.9,370.1,520.1,370.2,519.3z M388.2,517.7c-1.1-0.6-2.4-1.7-2.4-2.1c0-0.2,0.2-0.4,0.5-0.4c0.5-0.2,4.4,2.5,4.1,2.9
			C390,518.3,389.2,518.2,388.2,517.7z M375.8,515.8c-1.8-0.7-2.8-1.7-3-3.5c-0.2-2,0-2.8,1.4-4.2c1.8-1.8,3.9-2.8,6.6-3
			c2.1-0.2,2.4-0.1,3.2,0.6c0.9,0.7,0.9,0.8,0.5,1.9c-0.7,2-3.8,4.1-6.3,4.2c-0.8,0-1.5-0.1-1.6-0.3c-0.1-0.2,0.7-0.7,1.8-1.2
			c2.7-1.2,3.8-3.1,1.7-3.1c-2.3,0-6.4,3.4-5.6,4.7c0.6,0.9,2.4,1.9,3.4,1.9c2.2,0,6.9-3,8-5.1c0.5-1,0.6-3.2,0.1-4.1
			c-0.2-0.4-0.9-0.7-2-1c-4.2-0.9-9.6,1.4-13.9,5.9c-1.4,1.4-2.2,1.8-2.2,1.1c0-0.7,1.7-3.6,3-5c3.9-4.3,10.5-6.1,14.4-4
			c6.6,3.6,3.8,11.7-4.7,14C378.5,516.4,377.4,516.4,375.8,515.8z M390.2,504.7c0-0.6,2.5-2.1,3.7-2.2c1.5-0.1,1.2,0.7-0.6,1.5
			C390.7,505.1,390.2,505.3,390.2,504.7z M368.3,501.7c-1.1-1-1.4-2.6-0.5-2.6c0.6,0,2.7,2.2,2.7,2.9
			C370.5,502.9,369.4,502.7,368.3,501.7z"/>
		<path id="path30715" class="st1" d="M366,564.2c-10.2-0.6-22-2.7-31.5-5.6c-3.8-1.2-3.6-0.9-4.5-5.5c-1.5-7.1-2-21.3-1.2-31.7
			c0.4-4.6,1.5-15.3,1.8-16.4c0.1-0.5,0.7-0.8,3.1-1.4c3.1-0.7,12.8-2.4,15-2.6l1.3-0.1l0.2,1.9c0.4,3.8,0.3-2.8-0.1-9.4
			c-0.2-3.4-0.4-6.3-0.3-6.3s6.2,0,13.7,0.2c7.5,0.2,19.9,0.5,27.5,0.7c7.6,0.2,15,0.4,16.4,0.4l2.5,0.1l0.2,21.2
			c0.2,19.9,0.2,20.3,0.2,7l0.1-14.1l1.7,0.2c0.9,0.1,3.3,0.5,5.3,0.9c3,0.6,3.7,0.8,3.9,1.3c0.4,1,1.6,11.2,1.9,16.4
			c0.6,8.8,0.2,19.9-1,27.1c-0.4,2.7-2.1,9.8-2.5,10.5c-0.2,0.3-0.7,0.6-1.2,0.8c-5.7,1.2-8.9,1.8-10.7,2.1c-1.2,0.2-3,0.5-4.1,0.7
			c-3,0.5-10.4,1.2-15.5,1.6C383.8,564.4,370.4,564.4,366,564.2z M400.6,560.9c-2.3-0.1-6.1-0.2-8.4-0.2l-4.3,0l3.8,0.2
			c2.1,0.1,5.9,0.2,8.4,0.2l4.6,0L400.6,560.9z M385.4,560.5c-0.1-0.1-8.4-0.3-18.6-0.5c-10.2-0.2-19.2-0.5-20-0.6
			c-1.1-0.2-1.4-0.2-1.2,0.1c0.2,0.2,3.7,0.4,10.3,0.6c5.5,0.1,11.4,0.3,13.1,0.3C374.2,560.5,385.6,560.6,385.4,560.5z
			 M405.1,558.4c-0.1-0.3-0.2-0.1-0.2,0.4c0,0.5,0.1,0.8,0.1,0.6C405.2,559.2,405.2,558.7,405.1,558.4z M404.8,552.2
			c-0.1-3-0.4-6.5-0.5-7.7c-0.2-2.1-0.3-2-0.1,0.8c0.4,10.2,0.6,12.4,0.7,12.4C404.9,557.7,404.9,555.2,404.8,552.2z M348.3,552.1
			c0.5-0.9,0.8-1.4,0.6-1.3c-0.5,0.5-3.6,5.7-3.6,6.1C345.3,557.2,346.5,555.4,348.3,552.1z M402.7,556.4c0-0.2-1.5-7.2-2.4-10.7
			c-0.2-0.6-0.4-0.7-6.8-0.9c-26.5-0.9-34.9-1.1-36.4-1.1l-1.8,0l-2.9,5.7l-2.9,5.7l7.2,0.2c4,0.1,14.2,0.5,22.7,0.8
			C398.1,556.8,402.7,556.8,402.7,556.4z M379.3,553.8c-2.2-0.8-0.9-2.4,1.9-2.4c2,0,3,0.4,3,1.3
			C384.2,553.8,381.3,554.5,379.3,553.8z M387,553.7c-1-0.5-1.1-1.5-0.2-2c0.9-0.5,3.8-0.5,4.7,0c1.1,0.6,0.9,1.6-0.4,2.1
			C389.7,554.3,388.1,554.3,387,553.7z M395.2,553.7c-2.3-1-1.2-2.4,2-2.4c2.3,0,3.2,0.5,2.9,1.5c-0.1,0.4-0.6,0.8-1.4,1
			C397.1,554.3,396.4,554.3,395.2,553.7z M359.7,550.6c-1.1-0.6-1.2-1.7-0.2-2.1c1.1-0.4,3-0.4,4.3,0c2.1,0.7,0.6,2.5-2,2.5
			C361,551,360.1,550.8,359.7,550.6z M367.6,550.6c-1.1-0.6-1.2-1.6-0.2-2.1c1-0.5,4.6-0.3,5,0.4c0.5,0.7,0.3,1.2-0.7,1.7
			C370.7,551.1,368.7,551.2,367.6,550.6z M375.1,550.3l-0.9-0.7l0.7-0.7c1.1-1.1,5.1-0.8,5.6,0.4c0.3,0.9-0.7,1.6-2.6,1.7
			C376.2,551,375.8,550.9,375.1,550.3z M384,550.7c-0.5-0.2-0.7-0.6-0.7-1.1c0-0.7,0.2-0.9,1.3-1.2c2.7-0.7,5.6,0.5,4.3,1.8
			C388.3,550.9,385.1,551.2,384,550.7z M391.9,550.7c-1-0.4-1.2-1.2-0.6-1.8c0.4-0.4,1.1-0.5,2.6-0.5c1.8,0,2.2,0.1,2.8,0.7l0.7,0.7
			l-0.8,0.6C395.8,551.1,393.2,551.2,391.9,550.7z M356,547.2c-0.6-0.6-0.6-0.7,0-1.3c0.5-0.5,1-0.6,2.7-0.6c2,0,3.2,0.4,3.2,1.2
			C361.9,547.9,357.1,548.4,356,547.2z M364.1,547.2c-0.7-0.6-0.7-0.6-0.1-1.3c0.5-0.6,1-0.7,2.7-0.7c1.8,0,2.2,0.1,2.7,0.7
			c0.6,0.7,0.6,0.7-0.1,1.3c-0.5,0.4-1.3,0.6-2.6,0.6C365.3,547.8,364.6,547.7,364.1,547.2z M372.3,547.6c-0.3-0.1-0.6-0.4-0.8-0.8
			c-0.3-1,0.6-1.5,2.8-1.5c2.1,0,3.1,0.4,3.1,1.3c0,0.3-0.3,0.8-0.6,0.9C376.3,547.8,373.4,547.9,372.3,547.6z M418.1,554.4
			c1.2-0.9-0.4-3.7-2.2-3.7c-1.2,0-5.3,1.3-5.3,1.6c0,0.1,0.8,0.7,1.8,1.4c1.5,0.9,2.1,1.1,3.4,1.1
			C416.8,554.8,417.8,554.6,418.1,554.4z M414.4,549.7c0.6,0,0.7-0.1,0.4-0.4c-0.6-0.6-4-0.5-4.8,0.2c-1.3,1.2-0.8,1.4,1.5,0.8
			C412.7,550,414,549.7,414.4,549.7z M350.4,548.7c0.4-0.7,0.6-1.1,0.4-1c-0.2,0.1-0.7,0.8-1.1,1.6
			C349,550.8,349.4,550.4,350.4,548.7z M352.5,545.2c0.5-0.8,0.8-1.5,0.7-1.5c-0.2,0-2.1,3.1-2.1,3.4
			C351.1,547.5,351.6,546.8,352.5,545.2z M399.6,542.2c-2.3-0.1-6.1-0.1-8.4,0c-2.3,0.1-0.4,0.1,4.2,0.1S401.9,542.2,399.6,542.2z
			 M377,541.9c-4.1-0.1-10.8-0.1-15,0c-4.2,0.1-0.9,0.1,7.4,0.1S381,541.9,377,541.9z M371.1,531c-3.1-0.1-8.3-0.1-11.5,0
			s-0.7,0.1,5.6,0.1C371.5,531.1,374.2,531.1,371.1,531z M381.6,531c-0.5-0.1-1.3-0.1-1.8,0s-0.1,0.1,0.9,0.1
			C381.7,531.2,382,531.1,381.6,531z M395.6,531c-1.7-0.1-4.6-0.1-6.4,0c-1.8,0.1-0.4,0.1,3.1,0.1
			C395.8,531.1,397.3,531.1,395.6,531z M408,531c-1-0.1-2.7-0.1-3.8,0c-1.1,0.1-0.3,0.1,1.8,0.1C408.1,531.1,409,531.1,408,531z
			 M351.9,527.4c-0.1-0.6-0.1-0.1-0.1,1s0.1,1.6,0.1,1C352,528.9,352,527.9,351.9,527.4z M405.8,527c0.1-0.1,1-35,0.9-35.1
			c-0.1-0.1-53.1-1.2-53.2-1c-0.1,0.1,0.4,7.9,0.9,17.3c0.6,9.5,1.1,17.7,1.1,18.3l0,1.1l25.1-0.2C394.4,527.2,405.7,527,405.8,527z
			 M378.4,525.6c-0.8-0.9-0.6-1.6,0.4-2.1c2.2-1.1,5.5-0.2,5,1.3C383.3,526.1,379.4,526.7,378.4,525.6z M381.4,524.4
			c-0.2-0.1-0.6-0.1-1,0c-0.3,0.1-0.1,0.2,0.4,0.2C381.4,524.5,381.6,524.5,381.4,524.4z M360.3,522.3c-0.1-0.2-1.4-27.8-1.3-28
			c0.1-0.1,9.5-0.2,21-0.2c16.8-0.1,20.8,0,20.8,0.3c0,0.2-0.3,6-0.6,12.8c-0.3,6.8-0.6,13-0.6,13.8l0,1.4h-19.6
			C369.1,522.3,360.3,522.3,360.3,522.3z M397.4,520c0.1-0.2,0-5.6-0.1-12l-0.2-11.6l-8.8-0.2c-4.8-0.1-12.8-0.3-17.8-0.4l-9-0.2
			v5.2c0,2.9,0.1,8.5,0.2,12.5l0.2,7.2h17.6C393.5,520.4,397.3,520.3,397.4,520z M351.5,520.7c-0.1-2.7-0.3-4.4-0.4-3.8
			c-0.1,1.4,0.3,9,0.5,8.8C351.7,525.7,351.6,523.4,351.5,520.7z M350.9,510.2c-0.1-2.7-0.3-4.4-0.4-3.8c-0.1,1.4,0.3,9,0.5,8.8
			C351,515.1,351,512.9,350.9,510.2z"/>
		<path id="path30713" class="st2" d="M390.4,560.6c-4-0.1-15.1-0.4-24.7-0.6c-9.5-0.2-18-0.5-18.8-0.6c-2.4-0.4-2.3-1,2.5-9.1
			l4.1-7l-0.7-1.3c-0.5-1-0.7-1.9-0.7-3.8c0-2.3,0.1-2.5,0.9-3.3c1.7-1.7,4.9-0.9,9.6,2.2c3.3,2.2,5.9,2.8,7.9,1.8
			c0.5-0.3,0.5-0.4-0.3-1.6c-0.5-0.7-1.2-1.9-1.6-2.6l-0.7-1.2l1.4,0.2c0.8,0.1,2.6,0.3,4,0.6c2.3,0.4,2.7,0.4,3.4-0.1
			c0.8-0.5,1-1.5,0.6-2.6c-0.2-0.4-1.6-0.5-12.6-0.5c-9.6,0-12.4-0.1-12.5-0.4c-0.1-0.4-1.5-23.8-2.1-35.1c-0.2-3.9-0.4-7.4-0.5-7.8
			l-0.2-0.8l7.4,0.2c7.9,0.2,28.9,0.8,43.9,1.1l9.1,0.2l0.1,21.3l0.1,21.3h-4.3h-4.3l-1.4,2c-1.6,2.2-2.1,4-1.7,5.5
			c0.6,2.3,3.2,2.2,7.3-0.1c6.1-3.5,7.9-4.3,9.8-4.3c2.2,0,3.2,0.8,3.2,2.6c0,1.5-0.8,2.5-4,4.6c-3.2,2.1-4.6,3.5-5.4,5.2
			c-0.7,1.6-0.4,2,1.2,1.6c0.8-0.2,1.7-0.2,2.9,0c5,0.9,8.4,4.1,7.1,6.7c-1.5,2.9-7.9,2.2-11.3-1.2c-1.4-1.4-1.7-2.4-1.1-3.8
			c0.2-0.6,0.4-1.4,0.4-1.8c0-2.2,2.7-5.4,6.3-7.5c2-1.2,3.2-2.7,3.2-4.1c0-1.1-0.8-1.6-2.8-1.6c-1.7,0-3.9,1-9.6,4.3
			c-2.4,1.4-2.9,1.6-4.5,1.6c-2.5,0-3.5-0.9-3.4-3.2c0-1.7,1.1-4.2,2.5-5.4c0.4-0.3,0.7-0.7,0.7-0.9s-3.4-0.3-7.7-0.3
			c-7.6,0-7.7,0-7.9,0.7c-0.9,2.5,1.9,3.7,6.4,2.6c3.6-0.8,3.6-0.7,2,1.9l-1.4,2.2l-10.4-0.1c-9-0.1-10.4-0.1-10.5,0.3
			c-0.3,0.7-2.2,1.5-3.5,1.5c-1.2,0-3.7-1.2-7.7-3.7c-2.1-1.3-2.8-1.6-4.3-1.7c-1.7-0.1-1.9-0.1-2.5,0.7c-0.8,1.1-0.9,3.5-0.2,5.7
			c0.4,1.2,0.6,1.4,1,1.1c0.4-0.3,6.1-0.3,25-0.2c13.5,0.1,24.6,0.2,24.6,0.3c0.1,0.1,1.1,17.1,1.1,18
			C404.9,560.9,402.6,560.9,390.4,560.6z M402.7,556.4c0-0.2-1.5-7.2-2.4-10.7c-0.2-0.6-0.4-0.7-6.8-0.9
			c-26.5-0.9-34.9-1.1-36.4-1.1l-1.8,0l-2.9,5.7l-2.9,5.7l7.2,0.2c4,0.1,14.2,0.5,22.7,0.8C398.1,556.8,402.7,556.8,402.7,556.4z
			 M378.9,553.1c-1-0.8-0.1-1.3,2.3-1.3c1.5,0,2.2,0.1,2.6,0.5c0.5,0.5,0.5,0.6-0.3,0.9C382.2,553.7,379.6,553.6,378.9,553.1z
			 M386.9,553.1c-1-0.8-0.1-1.3,2.2-1.3s3.3,0.5,2.2,1.3c-0.3,0.3-1.3,0.5-2.2,0.5S387.2,553.4,386.9,553.1z M394.7,553.2
			c-0.7-0.3-0.7-0.3-0.2-0.9c0.7-0.7,4.4-0.8,5-0.1C400.6,553.3,396.8,554,394.7,553.2z M384.7,550.5c-2.2-0.5-1.3-1.7,1.4-1.7
			c2.8,0,3.9,1,1.8,1.6C386.5,550.7,385.8,550.7,384.7,550.5z M392.2,550.4c-2-0.6-1-1.6,1.7-1.6c2.2,0,3.4,0.6,2.6,1.2
			C395.9,550.5,393.5,550.7,392.2,550.4z M359.4,550.1c-0.7-0.5-0.2-1.2,1-1.4c1.5-0.3,3.7,0.1,4,0.7c0.3,0.7-0.5,1-2.6,1
			C360.7,550.4,359.6,550.2,359.4,550.1z M367.2,550c-1.5-0.9,1.9-1.9,4.1-1.2c1.2,0.4,1.4,0.6,0.8,1.2
			C371.6,550.5,368,550.5,367.2,550z M375.1,549.9c-0.5-0.4-0.6-0.5-0.1-0.8c1.2-0.8,5.4-0.6,5.4,0.3
			C380.4,550.4,376.2,550.8,375.1,549.9z M356.6,547.1c-0.4-0.2-0.7-0.5-0.7-0.6c0-0.5,1.8-1,3.4-0.8c3.2,0.3,3,1.6-0.2,1.7
			C358.1,547.5,357,547.3,356.6,547.1z M364.5,547.2c-1.5-0.6-0.4-1.6,1.9-1.6c1.6,0,3.1,0.4,3.1,0.9
			C369.5,547.3,366,547.8,364.5,547.2z M372.5,547.2c-1.6-0.7-0.4-1.6,2.1-1.6c1.8,0,3,0.7,2.4,1.3
			C376.5,547.4,373.4,547.6,372.5,547.2z M417.5,554.7c1.5-0.6,1.5-1.8,0-3.2c-1.2-1.2-1.3-1.2-4.9-0.1c-1.1,0.3-2,0.8-2,0.9
			c0,0.7,4,2.8,5.3,2.8C416.2,555.2,416.9,555,417.5,554.7z M410.5,550.7c0.5-0.2,1.8-0.5,3-0.8c2-0.4,2-0.4,1.2-0.8
			c-2.1-0.8-5.3-0.1-5.3,1.2C409.4,551.1,409.4,551.1,410.5,550.7z M391.1,536.6c0.7-0.7,0.4-0.9-1.6-0.7c-2.4,0.2-4.8-0.4-5.9-1.6
			c-0.6-0.6-0.7-1-0.5-2.1l0.2-1.3h-2.3h-2.3l0,1.6c0,1.4-0.1,1.7-0.8,2.3c-1,0.8-3.5,1.1-5.2,0.6c-1.5-0.4-1.7-0.3-1.2,0.8l0.4,0.8
			h9.5C388.2,537,390.9,536.9,391.1,536.6z M405.8,527c0.1-0.1,1-35,0.9-35.1c-0.1-0.1-53.1-1.2-53.2-1c-0.1,0.1,0.4,7.9,0.9,17.3
			c0.6,9.5,1.1,17.7,1.1,18.3l0,1.1l25.1-0.2C394.4,527.2,405.7,527,405.8,527z M379.1,525.6c-0.5-0.1-0.8-0.4-0.8-0.8
			c0-0.9,2.1-1.6,3.8-1.2c1.4,0.3,1.9,1.1,0.9,1.6C382.2,525.6,380,525.8,379.1,525.6z M381.9,524.4c0.3-0.3-2.1-0.1-2.5,0.2
			c-0.3,0.2,0,0.3,1,0.1C381.2,524.6,381.9,524.4,381.9,524.4z M360.3,522.3c-0.1-0.2-1.4-27.8-1.3-28c0.1-0.1,9.5-0.2,21-0.2
			c16.8-0.1,20.8,0,20.8,0.3c0,0.2-0.3,6-0.6,12.8c-0.3,6.8-0.6,13-0.6,13.8l0,1.4h-19.6C369.1,522.3,360.3,522.3,360.3,522.3z
			 M397.4,520c0.1-0.2,0-5.6-0.1-12l-0.2-11.6l-8.3-0.2c-4.6-0.1-12.5-0.3-17.8-0.4l-9.5-0.2l0,9.8c0,5.4,0.1,11,0.2,12.5l0.2,2.6
			h17.6C393.5,520.4,397.3,520.3,397.4,520z"/>
		<path id="path30711" class="st3" d="M377.3,560.1c-8.6-0.2-19.2-0.5-23.6-0.7l-8-0.2l-0.1-1c-0.1-0.8,0.7-2.3,3.9-7.8l4-6.8
			l-0.7-1.6c-0.6-1.2-0.7-2.1-0.7-3.9c0-2.1,0.1-2.4,0.9-3.2c1.7-1.7,4.9-0.9,9.6,2.2c3.3,2.2,5.9,2.8,7.9,1.8
			c0.5-0.3,0.5-0.4-0.3-1.6c-0.5-0.7-1.2-1.9-1.6-2.6l-0.7-1.2l1.4,0.2c0.8,0.1,2.6,0.3,4,0.6c2.3,0.4,2.7,0.4,3.4-0.1
			c0.8-0.5,1-1.3,0.6-2.7l-0.2-0.7h-12.4h-12.4l-0.2-2c-0.2-1.7-0.9-13-2.1-34.9c-0.2-3.6-0.3-6.5-0.2-6.6c0.1-0.1,5.3,0,11.6,0.2
			c6.3,0.2,18.8,0.5,27.8,0.7s17.3,0.4,18.3,0.5l1.9,0.2l0.2,10.7c0.3,13.5,0.3,30.1,0,30.8c-0.2,0.4-1.5,0.5-12.2,0.5h-12l-0.3,0.9
			c-0.6,1.8,0.8,3.2,3.2,3.2c0.6,0,2.1-0.2,3.3-0.5c3.4-0.8,3.5-0.7,1.9,1.9l-1.4,2.2l-10.4-0.1c-9-0.1-10.4-0.1-10.5,0.3
			c-0.3,0.7-2.2,1.5-3.5,1.5c-1.2,0-3.7-1.2-7.7-3.7c-2.1-1.3-2.8-1.6-4.3-1.7c-1.7-0.1-1.9-0.1-2.5,0.7c-0.8,1.1-0.9,3.5-0.2,5.6
			l0.5,1.4h24.8c13.7,0,24.9,0.1,25,0.2c0.2,0.2,0.6,5.5,1,12.9l0.2,4.9l-5.9,0C395.6,560.5,385.9,560.3,377.3,560.1z M402.9,556.4
			c-0.1-0.4-0.7-3.1-1.4-6l-1.2-5.3l-3.5-0.2c-5.6-0.3-32.7-1.1-37.3-1.1h-4.2l-2.9,5.6c-1.6,3.1-2.8,5.7-2.8,5.8
			c0.1,0.1,44.5,1.8,51.5,2C403,557.1,403.1,557,402.9,556.4z M378.9,553.1c-0.9-0.7-0.2-1.2,1.7-1.4c1.7-0.2,3.3,0.3,3.3,1
			C383.9,553.6,380,553.9,378.9,553.1z M386.9,553.1c-1-0.8-0.1-1.3,2.2-1.3s3.3,0.5,2.2,1.3c-0.3,0.3-1.3,0.5-2.2,0.5
			S387.2,553.4,386.9,553.1z M394.9,553.3c-0.8-0.2-0.7-1,0.3-1.4c1.1-0.4,3.8-0.2,4.3,0.3C400.5,553.2,397.3,553.9,394.9,553.3z
			 M384.7,550.5c-2.2-0.5-1.3-1.7,1.4-1.7c2.8,0,3.9,1,1.8,1.6C386.5,550.7,385.8,550.7,384.7,550.5z M392.2,550.3
			c-2-0.6-1-1.6,1.7-1.6c2.1,0,2.9,0.3,2.6,1C396.2,550.6,394.1,550.9,392.2,550.3z M359.4,550.1c-0.7-0.5-0.2-1.2,1-1.4
			c1.5-0.3,3.7,0.1,4,0.7c0.3,0.7-0.5,1-2.6,1C360.7,550.4,359.6,550.2,359.4,550.1z M367.3,550.1c-1.5-0.9,1.8-2,3.9-1.3
			c1.2,0.4,1.4,0.6,0.8,1.2C371.6,550.4,368,550.5,367.3,550.1z M375.1,550c-0.5-0.4-0.5-0.4,0-0.9c0.3-0.3,1.3-0.5,2.4-0.5
			s2,0.2,2.4,0.5c0.5,0.4,0.5,0.5,0,0.9c-0.3,0.2-1.4,0.4-2.4,0.4S375.5,550.2,375.1,550z M356.6,547.1c-0.9-0.5-0.9-0.8,0.1-1.2
			c1.6-0.6,4.9-0.2,4.9,0.6C361.6,547.4,358,547.8,356.6,547.1z M364.5,547.2c-2.3-1,1.7-2.2,4.3-1.3c0.8,0.3,0.8,0.4,0.4,0.8
			C368.5,547.4,365.6,547.7,364.5,547.2z M372.5,547.2c-1.6-0.7-0.4-1.6,2.1-1.6c1.8,0,3,0.7,2.4,1.3
			C376.5,547.4,373.4,547.6,372.5,547.2z M391.1,536.6c0.7-0.7,0.4-0.9-1.7-0.7c-1.5,0.1-2.5,0-3.6-0.3c-2.7-0.9-3.5-2.1-2.7-4.2
			l0.3-0.8h-2.7c-2.6,0-2.7,0-2.4,0.7c0.6,1.1,0.3,2.9-0.7,3.6c-1,0.8-3.5,1.1-5.2,0.6c-1.5-0.4-1.7-0.3-1.2,0.8l0.4,0.8h9.5
			C388.2,537,390.9,536.9,391.1,536.6z M392.8,527.2l13.3-0.2l0.2-9.8c0.1-5.4,0.3-13.3,0.4-17.6l0.2-7.9l-1.7-0.2
			c-0.9-0.1-6.9-0.3-13.2-0.4c-6.3-0.1-17.6-0.3-25-0.5s-13.6-0.2-13.7-0.2c-0.2,0.2,1.7,33.5,2,35.8l0.2,1.4l12-0.2
			C374.2,527.5,385.5,527.3,392.8,527.2z M379.1,525.6c-0.5-0.1-0.8-0.4-0.8-0.8c0-0.9,2.1-1.6,3.8-1.2c1.4,0.3,1.9,1.1,0.9,1.6
			C382.2,525.6,380,525.8,379.1,525.6z M381.9,524.4c0.3-0.3-2.1-0.1-2.5,0.2c-0.3,0.2,0,0.3,1,0.1
			C381.2,524.6,381.9,524.4,381.9,524.4z M360.2,518.8c-0.4-6.4-1.2-24.2-1.1-24.3c0.1-0.1,9.4-0.2,20.7-0.3l20.6-0.2l0,1.9
			c0,2.6-0.9,22.5-1.1,24.6l-0.2,1.7h-19.4h-19.4L360.2,518.8z M385.2,520.4l12.3,0v-6.8c0-3.7-0.1-9.2-0.2-12.1l-0.2-5.3l-6.7-0.2
			c-3.7-0.1-11.7-0.3-17.8-0.4l-11.1-0.2v12.4c0,6.8,0.1,12.5,0.2,12.7c0.1,0.1,2.7,0.2,5.7,0.1
			C370.4,520.5,378.4,520.4,385.2,520.4z M414.3,556.5c-2.9-0.7-6.2-3.2-6.6-4.9c-0.1-0.4,0-1.3,0.3-1.8s0.4-1.4,0.4-1.8
			c0-2.2,2.7-5.4,6.3-7.5c2-1.2,3.2-2.7,3.2-4.1c0-1.1-0.8-1.6-2.8-1.6c-1.7,0-3.9,1-9.6,4.3c-2.4,1.4-2.9,1.6-4.5,1.6
			c-1.5,0-2-0.1-2.6-0.8c-1.7-1.6-0.7-5.6,2.1-8.1c0.9-0.9,0.9-0.7-0.4,1.1c-1.6,2.3-2.2,4.1-1.8,5.6c0.6,2.3,3.2,2.2,7.3-0.1
			c6.1-3.5,7.9-4.3,9.8-4.3c2.2,0,3.2,0.8,3.2,2.6c0,1.5-0.8,2.5-4,4.6c-3.2,2.1-4.6,3.5-5.4,5.2c-0.7,1.6-0.4,2,1.2,1.6
			c2.2-0.6,6.3,0.6,8.5,2.4c3.1,2.6,2,5.7-2.1,6C415.9,556.7,414.8,556.6,414.3,556.5z M417.5,554.7c1.5-0.6,1.5-1.8,0-3.2
			c-1.2-1.2-1.3-1.2-4.9-0.1c-1.1,0.3-2,0.8-2,0.9c0,0.7,4,2.8,5.3,2.8C416.2,555.2,416.9,555,417.5,554.7z M410.5,550.7
			c0.5-0.2,1.8-0.5,3-0.8c2-0.4,2-0.4,1.2-0.8c-2.1-0.8-5.3-0.1-5.3,1.2C409.4,551.1,409.4,551.1,410.5,550.7z"/>
		<path id="path30709" class="st4" d="M389.5,559.9c-29.1-0.7-38.5-0.9-40.9-1.1c-2.5-0.2-2.6-0.3-2.6-0.9c0-0.4,0.1-0.8,0.3-0.9
			c0.2-0.1,0.6-0.7,0.9-1.4c0.8-1.7,6.1-10.6,7-11.7c0.7-1,0.8-1,3.8-1c2,0,2.8,0.1,2.3,0.2c-0.4,0.1-1.7,0.3-2.9,0.3
			c-2.2,0-2.8,0.4-3.3,1.8c-0.1,0.4-0.4,0.9-0.7,1.1c-0.3,0.2-0.5,0.6-0.5,1s-0.5,1.5-1.2,2.6c-1.6,2.7-2.7,5-2.5,5.3
			c0.2,0.4,4.7,0.7,16.1,1c5.3,0.2,13.9,0.4,19,0.6c5.1,0.2,11.2,0.4,13.7,0.5c3.9,0.2,4.5,0.2,4.9-0.3c0.2-0.3,0.3-0.8,0.2-1.1
			c-0.2-0.5-0.8-3.2-1.2-5.5c0-0.3-0.2-0.7-0.3-0.9c-0.1-0.2-0.2-0.7-0.1-1.1s-0.1-1-0.3-1.3c-0.2-0.3-0.4-0.9-0.4-1.3
			c0-0.5-0.2-0.9-0.4-0.9c-0.8-0.2-11.5-0.7-21.1-1c-3.5-0.1-8.6-0.2-11.3-0.4c-2.7-0.1-5.3-0.2-5.8-0.2c-0.5,0-0.8-0.1-0.7-0.3
			c0.3-0.5,40.7-0.3,41.3,0.3c0.5,0.4,0.8,3.2,1.1,9.3c0.1,1.8,0.2,4.2,0.3,5.3l0.1,2l-1,0.2c-0.5,0.1-1.6,0.2-2.5,0.1
			C400,560.2,394.9,560,389.5,559.9z M414.3,556.5c-2.9-0.7-6.2-3.2-6.6-4.9c-0.1-0.4,0-1.3,0.3-1.8s0.4-1.4,0.4-1.8
			c0-2.2,2.7-5.4,6.3-7.5c2-1.2,3.2-2.7,3.2-4.1c0-1.1-0.8-1.6-2.8-1.6c-1.7,0-3.9,1-9.6,4.3c-2.4,1.4-2.9,1.6-4.5,1.6
			c-1.5,0-2-0.1-2.6-0.8c-1.7-1.6-0.7-5.6,2.1-8.1c0.9-0.9,0.9-0.7-0.4,1.1c-1.6,2.3-2.2,4.1-1.8,5.6c0.6,2.3,3.2,2.2,7.3-0.1
			c6.1-3.5,7.9-4.3,9.8-4.3c2.2,0,3.2,0.8,3.2,2.6c0,1.5-0.8,2.5-4,4.6c-3.2,2.1-4.6,3.5-5.4,5.2c-0.7,1.6-0.4,2,1.2,1.6
			c2.2-0.6,6.3,0.6,8.5,2.4c3.1,2.6,2,5.7-2.1,6C415.9,556.7,414.8,556.6,414.3,556.5z M417.5,554.7c1.5-0.6,1.5-1.8,0-3.2
			c-1.2-1.2-1.3-1.2-4.9-0.1c-1.1,0.3-2,0.8-2,0.9c0,0.7,4,2.8,5.3,2.8C416.2,555.2,416.9,555,417.5,554.7z M410.5,550.7
			c0.5-0.2,1.8-0.5,3-0.8c2-0.4,2-0.4,1.2-0.8c-2.1-0.8-5.3-0.1-5.3,1.2C409.4,551.1,409.4,551.1,410.5,550.7z M378.9,553.1
			c-0.9-0.7-0.2-1.2,1.7-1.4c1.7-0.2,3.3,0.3,3.3,1C383.9,553.6,380,553.9,378.9,553.1z M386.9,553.1c-1-0.8-0.1-1.3,2.2-1.3
			s3.3,0.5,2.2,1.3c-0.3,0.3-1.3,0.5-2.2,0.5S387.2,553.4,386.9,553.1z M394.9,553.3c-0.8-0.2-0.7-1,0.3-1.4
			c1.1-0.4,3.8-0.2,4.3,0.3C400.5,553.2,397.3,553.9,394.9,553.3z M384.7,550.5c-2.2-0.5-1.3-1.7,1.4-1.7c2.8,0,3.9,1,1.8,1.6
			C386.5,550.7,385.8,550.7,384.7,550.5z M392.2,550.3c-2-0.6-1-1.6,1.7-1.6c2.1,0,2.9,0.3,2.6,1
			C396.2,550.6,394.1,550.9,392.2,550.3z M359.4,550.1c-0.7-0.5-0.2-1.2,1-1.4c1.5-0.3,3.7,0.1,4,0.7c0.3,0.7-0.5,1-2.6,1
			C360.7,550.4,359.6,550.2,359.4,550.1z M367.3,550.1c-1.5-0.9,1.8-2,3.9-1.3c1.2,0.4,1.4,0.6,0.8,1.2
			C371.6,550.4,368,550.5,367.3,550.1z M375.1,550c-0.5-0.4-0.5-0.4,0-0.9c0.3-0.3,1.3-0.5,2.4-0.5s2,0.2,2.4,0.5
			c0.5,0.4,0.5,0.5,0,0.9c-0.3,0.2-1.4,0.4-2.4,0.4S375.5,550.2,375.1,550z M356.6,547.1c-0.9-0.5-0.9-0.8,0.1-1.2
			c1.6-0.6,4.9-0.2,4.9,0.6C361.6,547.4,358,547.8,356.6,547.1z M364.5,547.2c-2.3-1,1.7-2.2,4.3-1.3c0.8,0.3,0.8,0.4,0.4,0.8
			C368.5,547.4,365.6,547.7,364.5,547.2z M372.5,547.2c-1.6-0.7-0.4-1.6,2.1-1.6c1.8,0,3,0.7,2.4,1.3
			C376.5,547.4,373.4,547.6,372.5,547.2z M352.8,541.7c-0.4-0.9-0.6-2.1-0.6-3.7c0-2.1,0.1-2.4,0.9-3.2c1.7-1.7,4.9-0.9,9.6,2.2
			c3.3,2.2,5.9,2.8,7.9,1.8c0.5-0.3,0.5-0.4-0.3-1.6c-0.5-0.7-1.2-1.9-1.6-2.6l-0.7-1.2l1.4,0.2c0.8,0.1,2.6,0.3,4,0.6
			c2.4,0.4,2.7,0.4,3.5-0.1c0.7-0.5,0.8-0.7,0.7-1.8c-0.2-1.4,0.3-2,1-1.1c0.7,1,0.4,3-0.6,3.7c-1,0.8-3.5,1.1-5.2,0.6
			c-1.5-0.4-1.7-0.3-1.2,0.8l0.4,0.8h9.5c9.3,0,10.3-0.1,10.3-1c0-0.1-0.9-0.2-2-0.1c-1.5,0.1-2.5,0-3.6-0.3
			c-2.7-0.9-3.5-2.1-2.7-4.2c0.3-0.7,0.5-0.8,1.2-0.7c0.6,0.1,0.8,0.3,0.8,0.6c-0.7,3,1.6,4.1,6.4,3c3.6-0.8,3.6-0.7,2,1.9l-1.4,2.2
			l-10.4-0.1c-9-0.1-10.4-0.1-10.5,0.3c-0.3,0.7-2.2,1.5-3.5,1.5c-1.2,0-3.7-1.2-7.7-3.7c-2.1-1.3-2.8-1.6-4.3-1.7
			c-1.7-0.1-1.9-0.1-2.5,0.7c-0.9,1.1-0.9,3.7-0.1,5.9C354,543.4,353.6,543.6,352.8,541.7z M352.8,530c-0.2-0.3-0.4-3.8-0.8-10.7
			c-0.2-3.7-0.5-8.7-0.7-11.2c-0.3-4.2-0.5-7.4-0.8-16.8l-0.2-4.1l4.1,0.2c5.8,0.3,27.4,0.8,42,1c8,0.1,12.6,0.3,12.8,0.5
			c0.3,0.3,0.4,1.8,0.2,6.8c-0.1,3.5-0.2,12.7-0.2,20.4l0,14l-28.1,0C365.6,530.1,352.9,530.1,352.8,530z M379.8,527.8
			c0.1-0.1,6-0.2,13.1-0.3c7.3-0.1,13-0.3,13.2-0.5c0.3-0.2,0.4-2,0.4-5.8c0-3,0.2-8.6,0.3-12.3c0.4-10.2,0.4-16.9,0-17.3
			c-0.3-0.3-3.7-0.4-11.1-0.6c-17.6-0.3-27.9-0.6-35.2-0.7c-6.6-0.2-6.9-0.1-7.2,0.5c-0.4,0.8-0.4,3.5,0,6.9
			c0.2,1.4,0.4,4.6,0.5,7.1c0.1,2.5,0.3,4.7,0.3,4.8s0.2,1.9,0.2,4c0,2.1,0.2,4.5,0.3,5.4c0.1,0.9,0.3,3.2,0.3,5.1
			c0,2.8,0.1,3.5,0.6,3.7C356,528.1,379.3,528.1,379.8,527.8z M379.1,525.6c-0.5-0.1-0.8-0.4-0.8-0.8c0-0.9,2.1-1.6,3.8-1.2
			c1.4,0.3,1.9,1.1,0.9,1.6C382.2,525.6,380,525.8,379.1,525.6z M381.9,524.4c0.3-0.3-2.1-0.1-2.5,0.2c-0.3,0.2,0,0.3,1,0.1
			C381.2,524.6,381.9,524.4,381.9,524.4z M361,521.7c-0.4-0.2-1.4-17.7-1.4-24.7l0-2.2h1c0.8,0,0.9,0.1,0.8,0.8
			c-0.1,0.4-0.2,6.2-0.2,12.8c0,11.6,0,12.1,0.6,12.5c0.3,0.2,0.8,0.4,1.1,0.3c0.3-0.1,0.7,0,1,0.2c0.3,0.2,0.3,0.3,0.2,0.4
			C363.2,521.9,361.2,521.8,361,521.7z M364.6,521.7c-0.1-0.1,0.1-0.3,0.3-0.4c0.2-0.1,7.7-0.2,16.6-0.2c8.9,0,16.4-0.2,16.5-0.3
			c0.3-0.2,0-23.6-0.3-24.5c-0.1-0.2-0.4-0.5-0.7-0.6s-4.7-0.2-9.8-0.3s-11.4-0.3-14-0.4l-4.8-0.2l4.1-0.2c2.3-0.1,9.4-0.2,15.8-0.2
			l11.7,0l0.1,0.9c0.1,0.5,0,2.5-0.1,4.4c-0.2,3.2-0.8,14.7-1,19.7c-0.1,1.2-0.2,2.2-0.3,2.3C398.5,521.8,364.7,521.9,364.6,521.7z
			 M365.3,494.7c0.2-0.1,0.5-0.1,0.6,0s-0.1,0.2-0.4,0.2C365.2,494.9,365.1,494.8,365.3,494.7z"/>
		<path id="path30707" class="st5" d="M414.3,556.5c-2.9-0.7-6.2-3.2-6.6-4.9c-0.1-0.4,0-1.3,0.3-1.8s0.4-1.4,0.4-1.8
			c0-2.2,2.7-5.4,6.3-7.5c2-1.2,3.2-2.7,3.2-4.1c0-1.1-0.8-1.6-2.8-1.6c-1.7,0-3.9,1-9.6,4.3c-2.4,1.4-2.9,1.6-4.5,1.6
			c-1.5,0-2-0.1-2.6-0.8c-1.7-1.6-0.7-5.6,2.1-8.1c0.9-0.9,0.9-0.7-0.4,1.1c-1.6,2.3-2.2,4.1-1.8,5.6c0.6,2.3,3.2,2.2,7.3-0.1
			c6.1-3.5,7.9-4.3,9.8-4.3c2.2,0,3.2,0.8,3.2,2.6c0,1.5-0.8,2.5-4,4.6c-3.2,2.1-4.6,3.5-5.4,5.2c-0.7,1.6-0.4,2,1.2,1.6
			c2.2-0.6,6.3,0.6,8.5,2.4c3.1,2.6,2,5.7-2.1,6C415.9,556.7,414.8,556.6,414.3,556.5z M417.5,554.7c1.5-0.6,1.5-1.8,0-3.2
			c-1.2-1.2-1.3-1.2-4.9-0.1c-1.1,0.3-2,0.8-2,0.9c0,0.7,4,2.8,5.3,2.8C416.2,555.2,416.9,555,417.5,554.7z M410.5,550.7
			c0.5-0.2,1.8-0.5,3-0.8c2-0.4,2-0.4,1.2-0.8c-2.1-0.8-5.3-0.1-5.3,1.2C409.4,551.1,409.4,551.1,410.5,550.7z M378.9,553.1
			c-0.9-0.7-0.2-1.2,1.7-1.4c1.7-0.2,3.3,0.3,3.3,1C383.9,553.6,380,553.9,378.9,553.1z M386.9,553.1c-1-0.8-0.1-1.3,2.2-1.3
			s3.3,0.5,2.2,1.3c-0.3,0.3-1.3,0.5-2.2,0.5S387.2,553.4,386.9,553.1z M394.9,553.3c-0.8-0.2-0.7-1,0.3-1.4
			c1.1-0.4,3.8-0.2,4.3,0.3C400.5,553.2,397.3,553.9,394.9,553.3z M384.7,550.5c-2.2-0.5-1.3-1.7,1.4-1.7c2.8,0,3.9,1,1.8,1.6
			C386.5,550.7,385.8,550.7,384.7,550.5z M392.2,550.3c-2-0.6-1-1.6,1.7-1.6c2.1,0,2.9,0.3,2.6,1
			C396.2,550.6,394.1,550.9,392.2,550.3z M359.4,550.1c-0.7-0.5-0.2-1.2,1-1.4c1.5-0.3,3.7,0.1,4,0.7c0.3,0.7-0.5,1-2.6,1
			C360.7,550.4,359.6,550.2,359.4,550.1z M367.3,550.1c-1.5-0.9,1.8-2,3.9-1.3c1.2,0.4,1.4,0.6,0.8,1.2
			C371.6,550.4,368,550.5,367.3,550.1z M375.1,550c-0.5-0.4-0.5-0.4,0-0.9c0.3-0.3,1.3-0.5,2.4-0.5s2,0.2,2.4,0.5
			c0.5,0.4,0.5,0.5,0,0.9c-0.3,0.2-1.4,0.4-2.4,0.4S375.5,550.2,375.1,550z M356.6,547.1c-0.9-0.5-0.9-0.8,0.1-1.2
			c1.6-0.6,4.9-0.2,4.9,0.6C361.6,547.4,358,547.8,356.6,547.1z M364.5,547.2c-2.3-1,1.7-2.2,4.3-1.3c0.8,0.3,0.8,0.4,0.4,0.8
			C368.5,547.4,365.6,547.7,364.5,547.2z M372.5,547.2c-1.6-0.7-0.4-1.6,2.1-1.6c1.8,0,3,0.7,2.4,1.3
			C376.5,547.4,373.4,547.6,372.5,547.2z M352.8,541.7c-0.4-0.9-0.6-2.1-0.6-3.7c0-2.1,0.1-2.4,0.9-3.2c1.7-1.7,4.9-0.9,9.6,2.2
			c3.3,2.2,5.9,2.8,7.9,1.8c0.5-0.3,0.5-0.4-0.3-1.6c-0.5-0.7-1.2-1.9-1.6-2.6l-0.7-1.2l1.4,0.2c0.8,0.1,2.6,0.3,4,0.6
			c2.4,0.4,2.7,0.4,3.5-0.1c0.7-0.5,0.8-0.7,0.7-1.8c-0.2-1.4,0.3-2,1-1.1c0.7,1,0.4,3-0.6,3.7c-1,0.8-3.5,1.1-5.2,0.6
			c-1.5-0.4-1.7-0.3-1.2,0.8l0.4,0.8h9.5c9.3,0,10.3-0.1,10.3-1c0-0.1-0.9-0.2-2-0.1c-1.5,0.1-2.5,0-3.6-0.3
			c-2.7-0.9-3.5-2.1-2.7-4.2c0.3-0.7,0.5-0.8,1.2-0.7c0.6,0.1,0.8,0.3,0.8,0.6c-0.7,3,1.6,4.1,6.4,3c3.6-0.8,3.6-0.7,2,1.9l-1.4,2.2
			l-10.4-0.1c-9-0.1-10.4-0.1-10.5,0.3c-0.3,0.7-2.2,1.5-3.5,1.5c-1.2,0-3.7-1.2-7.7-3.7c-2.1-1.3-2.8-1.6-4.3-1.7
			c-1.7-0.1-1.9-0.1-2.5,0.7c-0.9,1.1-0.9,3.7-0.1,5.9C354,543.4,353.6,543.6,352.8,541.7z M379.1,525.6c-0.5-0.1-0.8-0.4-0.8-0.8
			c0-0.9,2.1-1.6,3.8-1.2c1.4,0.3,1.9,1.1,0.9,1.6C382.2,525.6,380,525.8,379.1,525.6z M381.9,524.4c0.3-0.3-2.1-0.1-2.5,0.2
			c-0.3,0.2,0,0.3,1,0.1C381.2,524.6,381.9,524.4,381.9,524.4z"/>
		<path id="path30705" class="st6" d="M413.5,556.1c-3-1-5.5-3-5.7-4.7c-0.1-0.8,0.3-2.4,0.6-2.4c0.1,0,0.2-0.4,0.1-0.9
			c-0.3-2.1,2.5-5.6,6.2-7.7c2-1.1,3.3-2.6,3.3-4c0-1.2-0.7-1.7-2.8-1.7c-1.7,0-3.9,1-9.6,4.3c-2.4,1.4-2.9,1.6-4.5,1.6
			c-1.5,0-2-0.1-2.6-0.8c-1.7-1.6-0.7-5.6,2.1-8.1c0.9-0.9,0.9-0.7-0.4,1.1c-1.6,2.3-2.2,4.1-1.8,5.6c0.6,2.3,3.2,2.2,7.3-0.1
			c6.1-3.5,7.9-4.3,9.8-4.3c2.2,0,3.2,0.8,3.2,2.6c0,1.5-0.8,2.5-4,4.6c-1.5,1-3.1,2.2-3.7,2.8c-1.3,1.3-2.3,3.3-2,4.1
			c0.1,0.3,0,0.9-0.3,1.3c-1.3,1.8-0.1,3.9,3.2,5.5c1.2,0.6,2.7,1.2,3.2,1.3c1.6,0.3,4-0.3,4.9-1.2c0.4-0.5,0.7-0.7,0.7-0.5
			c0,0.6-1.2,1.6-2.4,1.9C416.4,556.9,415.6,556.8,413.5,556.1z M378.9,553.1c-0.9-0.7-0.2-1.2,1.7-1.4c1.7-0.2,3.3,0.3,3.3,1
			C383.9,553.6,380,553.9,378.9,553.1z M382.7,553c1.1-0.1,0.5-0.6-0.9-0.8c-1.4-0.2-3.2,0.3-2.5,0.7
			C379.6,553.1,381.3,553.1,382.7,553z M386.9,553.1c-1-0.8-0.1-1.3,2.2-1.3s3.3,0.5,2.2,1.3c-0.3,0.3-1.3,0.5-2.2,0.5
			S387.2,553.4,386.9,553.1z M391.1,552.9c0.3-0.4,0.1-0.5-1.1-0.7c-1.8-0.3-4,0.5-2.3,0.9C388.6,553.3,390.9,553.2,391.1,552.9z
			 M394.9,553.3c-0.8-0.2-0.7-1,0.3-1.4c1.1-0.4,3.8-0.2,4.3,0.3C400.5,553.2,397.3,553.9,394.9,553.3z M399.1,552.8
			c0.4-0.4-0.4-0.6-2-0.6c-1.9,0-2.5,0.3-1.7,0.8C395.8,553.3,398.8,553.1,399.1,552.8z M420.2,553c0-0.7-2-2.6-3.2-3.3
			c-1.3-0.7-5.7-1.4-6.9-1.2c-0.6,0.1-0.7,0.1-0.5-0.2c0.6-0.6,4.1-0.3,6.1,0.4c2.8,1.1,5.1,3.2,4.7,4.2
			C420.3,553.3,420.2,553.3,420.2,553z M384.7,550.5c-2.2-0.5-1.3-1.7,1.4-1.7c2.8,0,3.9,1,1.8,1.6
			C386.5,550.7,385.8,550.7,384.7,550.5z M388.1,549.6c-0.1-0.5-3.7-0.4-3.8,0.1c-0.1,0.3,0.3,0.4,1.9,0.3
			C387.3,549.9,388.1,549.8,388.1,549.6z M392.2,550.3c-2-0.6-1-1.6,1.7-1.6c2.1,0,2.9,0.3,2.6,1
			C396.2,550.6,394.1,550.9,392.2,550.3z M395.9,549.7c-0.1-0.3-0.8-0.4-1.8-0.4s-1.7,0.1-1.8,0.4c-0.1,0.3,0.4,0.4,1.8,0.4
			S396,550,395.9,549.7z M359.4,550.1c-0.7-0.5-0.2-1.2,1-1.4c1.5-0.3,3.7,0.1,4,0.7c0.3,0.7-0.5,1-2.6,1
			C360.7,550.4,359.6,550.2,359.4,550.1z M363.6,549.8c0.3-0.5-0.4-0.7-2.1-0.7c-1.7,0-2,0.1-1.7,0.7
			C360.1,550.1,363.4,550.2,363.6,549.8z M367.3,550.1c-1.5-0.9,1.8-2,3.9-1.3c1.2,0.4,1.4,0.6,0.8,1.2
			C371.6,550.4,368,550.5,367.3,550.1z M371.3,549.9c1-0.4,0.1-0.8-1.7-0.8c-1.5,0-1.9,0.1-1.9,0.5c0,0.4,0.4,0.5,1.6,0.5
			C370.1,550.1,371,550,371.3,549.9z M375.1,550c-0.5-0.4-0.5-0.4,0-0.9c0.3-0.3,1.3-0.5,2.4-0.5s2,0.2,2.4,0.5
			c0.5,0.4,0.5,0.5,0,0.9c-0.3,0.2-1.4,0.4-2.4,0.4S375.5,550.2,375.1,550z M378.9,549.9c1.1-0.4,0.4-0.8-1.4-0.8
			c-1.8,0-2.7,0.4-1.9,0.7C376.3,550.1,378.3,550.1,378.9,549.9z M356.6,547.1c-0.9-0.5-0.9-0.8,0.1-1.2c1.6-0.6,4.9-0.2,4.9,0.6
			C361.6,547.4,358,547.8,356.6,547.1z M360.3,546.9c0.4-0.3,0.4-0.3,0-0.6c-0.3-0.2-1-0.3-1.6-0.3c-0.6,0-1.3,0.1-1.6,0.3
			c-0.4,0.3-0.4,0.3,0,0.6c0.3,0.2,1,0.3,1.6,0.3C359.3,547.2,360,547,360.3,546.9z M364.5,547.2c-2.3-1,1.7-2.2,4.3-1.3
			c0.8,0.3,0.8,0.4,0.4,0.8C368.5,547.4,365.6,547.7,364.5,547.2z M368.3,546.9c0.4-0.3,0.4-0.3,0-0.6c-0.7-0.4-3.1-0.4-3.4,0
			C364.4,547.1,367.2,547.6,368.3,546.9z M372.5,547.2c-1.6-0.7-0.4-1.6,2.1-1.6c1.8,0,3,0.7,2.4,1.3
			C376.5,547.4,373.4,547.6,372.5,547.2z M376,546.8c0.5-0.3,0.6-0.4,0.2-0.6c-0.6-0.4-3.1-0.4-3.3,0.1
			C372.4,547.1,374.7,547.5,376,546.8z M352.8,541.7c-0.4-0.9-0.6-2.1-0.6-3.7c0-2.1,0.1-2.4,0.9-3.2c1.7-1.7,4.9-0.9,9.6,2.2
			c1.9,1.3,4.7,2.5,5.9,2.5c0.2,0,0.9-0.2,1.5-0.5l1.1-0.5l-0.9-1.4c-0.5-0.8-1.2-1.9-1.6-2.6l-0.7-1.2l1.1,0c0.6,0,1.8,0.2,2.7,0.5
			c1.5,0.4,1.5,0.5,0.3,0.3c-0.7-0.1-1.7-0.2-2.3-0.4l-1.1-0.2l1.1,2c1.1,2,1.2,2,2.5,2.1c0.7,0,4.4,0.1,8.2,0.1s6.7,0.1,6.6,0.2
			c-0.1,0.1-3.6,0.2-7.8,0.1c-6.2,0-7.7,0.1-7.8,0.4c-0.2,0.6-2.2,1.5-3.5,1.5c-1.2,0-3.7-1.2-7.7-3.7c-2.1-1.3-2.8-1.6-4.3-1.7
			c-1.7-0.1-1.9-0.1-2.5,0.7c-0.9,1.1-0.9,3.7-0.1,5.9C354,543.4,353.6,543.6,352.8,541.7z M390.6,538.4c0.7-0.1,1.4-0.5,2-1.2
			l0.9-1l-0.7,1.1c-0.6,1-0.8,1.1-2,1.2C389.7,538.5,389.7,538.5,390.6,538.4z M379.6,537.3l-8-0.2l9.5-0.1c5.2,0,9.4,0,9.3,0.1
			C390.2,537.5,389,537.5,379.6,537.3z M371,536.1c-0.2-0.5-0.1-0.5,0.2-0.2c0.2,0.2,0.3,0.5,0.2,0.6S371.1,536.5,371,536.1z
			 M385.6,535.5c-2.4-0.9-3.2-2.1-2.4-4.1c0.2-0.6,0.5-0.8,1.1-0.8c0.9,0,1.2,0.3,0.8,1c-0.2,0.3-0.3,0.3-0.3,0.1
			c0-0.8-1.3-0.4-1.5,0.4c-0.4,1.7,1.5,3.2,4.8,3.7l1.6,0.2l-1.4,0C387.5,536,386.3,535.8,385.6,535.5z M393.8,535.3
			c0.2-0.5,0.3-1,0.2-1.1c-0.3-0.3-2.8,0.6-2.8,1c0,0.2-0.3,0.4-0.6,0.4c-0.3,0-0.4-0.1-0.2-0.2c0.9-0.4,0.3-0.6-1.2-0.5
			c-1.9,0.2-3.7-0.4-4.2-1.3c-0.3-0.7-0.3-0.7,0.5,0.1c1.1,1,3.1,1.2,5.9,0.6c3-0.7,3.7-0.7,3.3,0c-0.2,0.3-0.5,0.8-0.8,1.2
			C393.5,536.2,393.4,536.2,393.8,535.3z M372.2,535.3l-1-0.5l1.1,0.2c0.6,0.1,1.3,0.2,1.5,0.3c0.7,0.2,3.4-0.5,4-1
			c0.6-0.5,0.8-2.2,0.2-2.5c-0.2-0.1-0.3,0.1-0.3,0.4c0,0.4-0.1,0.4-0.3-0.2c-0.4-1.1,0.2-1.7,0.9-0.8c0.8,1,0.4,3-0.6,3.8
			C376.6,535.7,373.6,535.9,372.2,535.3z M375.3,534.5c1.6-0.2,1.6-0.2,2.1-1.1c0.2-0.4,0.4-0.5,0.4-0.2c0,0.9-1.2,1.7-2.6,1.6
			l-1.4,0L375.3,534.5z M379.1,525.6c-0.5-0.1-0.8-0.4-0.8-0.8c0-0.9,2.1-1.6,3.8-1.2c1.4,0.3,1.9,1.1,0.9,1.6
			C382.2,525.6,380,525.8,379.1,525.6z M382.8,524.8c0.5-0.5-0.6-0.9-2.3-0.7c-1.8,0.2-2.3,0.6-1.2,0.9
			C380,525.2,382.6,525,382.8,524.8z"/>
	</g>
</g>
</svg>
